<mxfile host="app.diagrams.net" modified="2023-07-12T12:33:33.595Z" agent="Mozilla/5.0 (X11; Linux x86_64; rv:109.0) Gecko/20100101 Firefox/116.0" version="21.3.7" etag="SjtbWK32zsB59Dc9LufA" type="github">
  <diagram name="Page-1" id="PyqPBp4YlXsSLLWZIL9q">
    <mxGraphModel>
      <root>
        <mxCell id="0" />
        <mxCell id="1" parent="0" />
      </root>
    </mxGraphModel>
  </diagram>
</mxfile>
